<svg width="608" height="789" viewBox="0 0 608 789" fill="none" xmlns="http://www.w3.org/2000/svg">
<path d="M586.572 409.447C586.572 733.771 543.615 733.771 329.117 733.771C114.619 733.771 61.9999 733.771 62 409.447C62.0001 85.1223 140.085 -4.16836e-05 329.117 0C518.149 4.16836e-05 586.572 85.1223 586.572 409.447Z" fill="white"/>
<path d="M462.618 187.256C462.618 211.145 443.252 230.511 419.362 230.511C395.473 230.511 376.107 211.145 376.107 187.256C376.107 163.366 395.473 144 419.362 144C443.252 144 462.618 163.366 462.618 187.256Z" fill="black"/>
<circle cx="228.256" cy="187.256" r="43.2556" fill="black"/>
<path d="M526.785 650.478C525.981 644.735 529.985 639.428 535.728 638.624C541.471 637.82 546.778 641.824 547.582 647.567C548.386 653.31 544.382 658.617 538.639 659.421C532.896 660.225 527.589 656.221 526.785 650.478Z" fill="black"/>
<path d="M541.853 614.498C541.049 608.755 545.053 603.447 550.796 602.643C556.539 601.839 561.846 605.843 562.65 611.586C563.454 617.329 559.45 622.637 553.707 623.441C547.964 624.245 542.657 620.241 541.853 614.498Z" fill="black"/>
<path d="M504.228 581.505C509.695 583.44 512.557 589.441 510.622 594.907C508.686 600.373 502.686 603.236 497.219 601.3C491.753 599.365 488.89 593.364 490.826 587.898C492.761 582.431 498.762 579.569 504.228 581.505Z" fill="black"/>
<path d="M528.912 592.445C534.379 594.381 537.241 600.381 535.306 605.848C533.37 611.314 527.37 614.177 521.903 612.241C516.437 610.306 513.574 604.305 515.51 598.839C517.445 593.372 523.446 590.51 528.912 592.445Z" fill="black"/>
<path d="M481.396 671.926C480.592 666.183 484.596 660.876 490.339 660.072C496.082 659.268 501.39 663.272 502.194 669.014C502.998 674.757 498.994 680.065 493.251 680.869C487.508 681.673 482.2 677.669 481.396 671.926Z" fill="black"/>
<path d="M451.227 658.554C450.423 652.811 454.427 647.504 460.17 646.7C465.913 645.896 471.22 649.9 472.024 655.642C472.828 661.385 468.824 666.693 463.082 667.497C457.339 668.301 452.031 664.297 451.227 658.554Z" fill="black"/>
<path d="M510.652 684.893C509.848 679.15 513.851 673.843 519.594 673.039C525.337 672.234 530.645 676.238 531.449 681.981C532.253 687.724 528.249 693.032 522.506 693.836C516.763 694.64 511.456 690.636 510.652 684.893Z" fill="black"/>
<path d="M496.795 637.186C495.99 631.443 499.994 626.135 505.737 625.331C511.48 624.527 516.788 628.531 517.592 634.274C518.396 640.017 514.392 645.324 508.649 646.128C502.906 646.932 497.599 642.929 496.795 637.186Z" fill="black"/>
<path d="M466.625 623.814C465.821 618.071 469.825 612.763 475.568 611.959C481.311 611.155 486.618 615.159 487.422 620.902C488.226 626.645 484.223 631.952 478.48 632.756C472.737 633.56 467.429 629.557 466.625 623.814Z" fill="black"/>
<path d="M61.5 382.5L61.5 317.5L69.2449 260.552C69.6149 257.832 72.5531 256.284 75.0059 257.518L146.9 293.683C150.619 295.554 154.096 297.873 157.251 300.59L332 451L500 567L563.083 593.861C571.348 597.38 575.753 606.454 573.406 615.125L563.492 651.75C560.859 661.481 556.264 670.57 549.992 678.462L539.932 691.118C533.033 699.797 521.531 703.377 510.926 700.145L415.256 670.996C405.487 668.019 396.281 663.437 388.017 657.436L249 556.5L70 393.761L61.5 382.5Z" fill="#0AA0F4"/>
<path d="M118.133 356.281C119.311 350.603 124.869 346.955 130.547 348.133C136.225 349.311 139.873 354.869 138.695 360.547C137.517 366.225 131.959 369.873 126.281 368.695C120.603 367.517 116.955 361.959 118.133 356.281Z" fill="#0FE4F2"/>
<path d="M144.304 333.376C145.482 327.698 151.04 324.05 156.718 325.228C162.396 326.406 166.044 331.964 164.866 337.642C163.688 343.32 158.13 346.968 152.452 345.79C146.774 344.612 143.126 339.054 144.304 333.376Z" fill="#00760C"/>
<path d="M119.996 289.635C124.491 293.299 125.164 299.913 121.5 304.408C117.836 308.902 111.221 309.575 106.727 305.911C102.232 302.247 101.559 295.633 105.223 291.138C108.887 286.644 115.501 285.97 119.996 289.635Z" fill="#00760C"/>
<path d="M139.55 308.253C144.045 311.917 144.718 318.531 141.054 323.026C137.39 327.52 130.776 328.193 126.281 324.529C121.786 320.865 121.113 314.251 124.777 309.756C128.442 305.262 135.056 304.588 139.55 308.253Z" fill="#EC1111"/>
<path d="M68.0326 367.076C69.2107 361.398 74.7687 357.75 80.4467 358.928C86.1248 360.106 89.7728 365.664 88.5948 371.342C87.4167 377.02 81.8587 380.668 76.1807 379.49C70.5026 378.312 66.8546 372.754 68.0326 367.076Z" fill="#FF5C00"/>
<path d="M71.133 281.281C72.3111 275.603 77.8691 271.955 83.5471 273.133C89.2252 274.311 92.8732 279.869 91.6952 285.547C90.5171 291.225 84.9591 294.873 79.2811 293.695C73.603 292.517 69.955 286.959 71.133 281.281Z" fill="#A62626"/>
<path d="M91.2081 389.142C92.3861 383.464 97.9441 379.816 103.622 380.994C109.3 382.172 112.948 387.73 111.77 393.408C110.592 399.086 105.034 402.734 99.3561 401.556C93.678 400.378 90.03 394.82 91.2081 389.142Z" fill="#FF5C00"/>
<path d="M90.133 344.281C91.3111 338.603 96.8691 334.955 102.547 336.133C108.225 337.311 111.873 342.869 110.695 348.547C109.517 354.225 103.959 357.873 98.2811 356.695C92.603 355.517 88.955 349.959 90.133 344.281Z" fill="#0FE4F2"/>
<path d="M70.3362 316.8C71.5142 311.122 77.0722 307.474 82.7503 308.652C88.4283 309.83 92.0763 315.388 90.8983 321.066C89.7202 326.744 84.1623 330.392 78.4842 329.214C72.8061 328.036 69.1581 322.478 70.3362 316.8Z" fill="#0FE4F2"/>
<path d="M526.785 650.478C525.981 644.735 529.985 639.428 535.728 638.624C541.471 637.82 546.778 641.824 547.582 647.567C548.386 653.31 544.382 658.617 538.639 659.421C532.896 660.225 527.589 656.221 526.785 650.478Z" fill="#1BD486"/>
<path d="M541.853 614.498C541.049 608.755 545.053 603.447 550.796 602.643C556.539 601.839 561.846 605.843 562.65 611.586C563.454 617.329 559.45 622.637 553.707 623.441C547.964 624.245 542.657 620.241 541.853 614.498Z" fill="#8F369D"/>
<path d="M504.228 581.505C509.695 583.44 512.557 589.441 510.622 594.907C508.686 600.373 502.686 603.236 497.219 601.3C491.753 599.365 488.89 593.364 490.826 587.898C492.761 582.431 498.762 579.569 504.228 581.505Z" fill="#1BD486"/>
<path d="M528.912 592.445C534.379 594.381 537.241 600.381 535.305 605.848C533.37 611.314 527.369 614.177 521.903 612.241C516.437 610.306 513.574 604.305 515.51 598.839C517.445 593.372 523.446 590.51 528.912 592.445Z" fill="#08FD20"/>
<path d="M481.396 671.926C480.592 666.183 484.596 660.876 490.339 660.072C496.082 659.268 501.39 663.272 502.194 669.014C502.998 674.757 498.994 680.065 493.251 680.869C487.508 681.673 482.2 677.669 481.396 671.926Z" fill="#8D07F6"/>
<path d="M451.227 658.554C450.423 652.811 454.427 647.504 460.17 646.7C465.913 645.896 471.22 649.9 472.024 655.642C472.828 661.385 468.824 666.693 463.082 667.497C457.339 668.301 452.031 664.297 451.227 658.554Z" fill="#08FD20"/>
<path d="M510.652 684.893C509.848 679.15 513.851 673.843 519.594 673.039C525.337 672.234 530.645 676.238 531.449 681.981C532.253 687.724 528.249 693.032 522.506 693.836C516.763 694.64 511.456 690.636 510.652 684.893Z" fill="#FAFF00"/>
<path d="M496.794 637.186C495.99 631.443 499.994 626.135 505.737 625.331C511.48 624.527 516.788 628.531 517.592 634.274C518.396 640.017 514.392 645.324 508.649 646.128C502.906 646.932 497.598 642.929 496.794 637.186Z" fill="#8F369D"/>
<path d="M457.456 629.31C456.652 623.567 460.656 618.26 466.399 617.456C472.142 616.652 477.449 620.656 478.253 626.399C479.057 632.142 475.053 637.449 469.31 638.253C463.567 639.057 458.26 635.053 457.456 629.31Z" fill="#FAFF00"/>
<path d="M192.582 424.073C193.646 418.373 199.131 414.615 204.831 415.68C210.531 416.745 214.289 422.229 213.224 427.93C212.16 433.63 206.675 437.388 200.975 436.323C195.275 435.258 191.517 429.774 192.582 424.073Z" fill="#A8B238"/>
<path d="M218.314 394.756C219.379 389.056 224.863 385.298 230.563 386.363C236.264 387.428 240.021 392.912 238.957 398.612C237.892 404.313 232.407 408.071 226.707 407.006C221.007 405.941 217.249 400.457 218.314 394.756Z" fill="#EC1111"/>
<path d="M187.212 341.471C191.778 345.046 192.583 351.645 189.009 356.212C185.435 360.778 178.835 361.583 174.269 358.009C169.702 354.435 168.897 347.835 172.471 343.269C176.045 338.702 182.645 337.897 187.212 341.471Z" fill="#8D07F6"/>
<path d="M213.061 369.733C217.628 373.307 218.433 379.906 214.858 384.473C211.284 389.039 204.685 389.844 200.118 386.27C195.552 382.696 194.747 376.096 198.321 371.53C201.895 366.963 208.495 366.159 213.061 369.733Z" fill="#1BD486"/>
<path d="M142.728 429.967C143.793 424.267 149.277 420.509 154.978 421.574C160.678 422.638 164.436 428.123 163.371 433.823C162.306 439.524 156.822 443.281 151.121 442.217C145.421 441.152 141.663 435.667 142.728 429.967Z" fill="#00760C"/>
<path d="M118.38 407.692C119.445 401.991 124.93 398.233 130.63 399.298C136.33 400.363 140.088 405.847 139.023 411.548C137.959 417.248 132.474 421.006 126.774 419.941C121.073 418.876 117.316 413.392 118.38 407.692Z" fill="#EC1111"/>
<path d="M166.338 451.567C167.403 445.867 172.887 442.109 178.587 443.174C184.288 444.239 188.046 449.723 186.981 455.424C185.916 461.124 180.432 464.882 174.731 463.817C169.031 462.752 165.273 457.268 166.338 451.567Z" fill="#A8B238"/>
<path d="M168.378 401.93C169.443 396.23 174.928 392.472 180.628 393.537C186.328 394.602 190.086 400.086 189.021 405.787C187.956 411.487 182.472 415.245 176.772 414.18C171.071 413.115 167.314 407.631 168.378 401.93Z" fill="#A8B238"/>
<path d="M144.031 379.655C145.096 373.955 150.58 370.197 156.28 371.262C161.981 372.326 165.739 377.811 164.674 383.511C163.609 389.211 158.125 392.969 152.424 391.904C146.724 390.84 142.966 385.355 144.031 379.655Z" fill="#FF5C00"/>
<path d="M283.141 485.279C284.323 479.602 289.884 475.959 295.561 477.141C301.239 478.323 304.882 483.884 303.7 489.561C302.517 495.239 296.957 498.882 291.279 497.7C285.602 496.517 281.959 490.957 283.141 485.279Z" fill="#A8B238"/>
<path d="M298.51 460.588C299.692 454.911 305.253 451.267 310.93 452.45C316.607 453.632 320.251 459.193 319.068 464.87C317.886 470.547 312.325 474.191 306.648 473.009C300.971 471.826 297.327 466.265 298.51 460.588Z" fill="#0FE4F2"/>
<path d="M262.415 410.641C266.907 414.309 267.575 420.923 263.907 425.415C260.239 429.907 253.625 430.575 249.133 426.907C244.641 423.239 243.973 416.625 247.641 412.133C251.309 407.641 257.923 406.973 262.415 410.641Z" fill="#FF5C00"/>
<path d="M293.775 435.461C298.267 439.129 298.935 445.744 295.268 450.235C291.6 454.727 284.985 455.395 280.494 451.728C276.002 448.06 275.334 441.445 279.001 436.954C282.669 432.462 289.284 431.794 293.775 435.461Z" fill="#F69606"/>
<path d="M225.141 504.279C226.323 498.602 231.884 494.959 237.561 496.141C243.239 497.323 246.882 502.884 245.7 508.561C244.517 514.239 238.957 517.882 233.279 516.7C227.602 515.517 223.959 509.957 225.141 504.279Z" fill="#EC1111"/>
<path d="M196.141 476.279C197.323 470.602 202.884 466.959 208.561 468.141C214.239 469.323 217.882 474.884 216.7 480.561C215.517 486.239 209.957 489.882 204.279 488.7C198.602 487.517 194.959 481.957 196.141 476.279Z" fill="#0FE4F2"/>
<path d="M262.141 515.279C263.323 509.602 268.884 505.959 274.561 507.141C280.239 508.323 283.882 513.884 282.7 519.561C281.517 525.239 275.957 528.882 270.279 527.7C264.602 526.517 260.959 520.957 262.141 515.279Z" fill="#F69606"/>
<path d="M248.437 466.729C249.619 461.051 255.18 457.408 260.857 458.59C266.534 459.773 270.178 465.333 268.995 471.011C267.813 476.688 262.252 480.331 256.575 479.149C250.898 477.967 247.254 472.406 248.437 466.729Z" fill="#F69606"/>
<path d="M224.555 443.955C225.737 438.277 231.298 434.634 236.975 435.816C242.652 436.999 246.296 442.559 245.114 448.237C243.931 453.914 238.37 457.557 232.693 456.375C227.016 455.193 223.372 449.632 224.555 443.955Z" fill="#1BD486"/>
<path d="M358.28 554.407C358.609 548.618 363.569 544.191 369.358 544.519C375.148 544.848 379.575 549.808 379.246 555.597C378.918 561.387 373.958 565.814 368.168 565.486C362.379 565.157 357.952 560.197 358.28 554.407Z" fill="#08FD20"/>
<path d="M380.06 522.046C380.389 516.256 385.349 511.829 391.138 512.158C396.928 512.486 401.355 517.446 401.026 523.236C400.698 529.026 395.738 533.453 389.948 533.124C384.159 532.795 379.732 527.835 380.06 522.046Z" fill="#F69606"/>
<path d="M349.573 482.363C354.559 485.325 356.199 491.768 353.237 496.753C350.275 501.739 343.832 503.379 338.847 500.417C333.861 497.455 332.221 491.012 335.183 486.027C338.145 481.041 344.588 479.401 349.573 482.363Z" fill="#8F369D"/>
<path d="M371.657 497.897C376.643 500.859 378.283 507.302 375.321 512.287C372.359 517.273 365.916 518.913 360.931 515.951C355.945 512.989 354.305 506.546 357.267 501.561C360.229 496.575 366.672 494.935 371.657 497.897Z" fill="#FAFF00"/>
<path d="M309.586 566.615C309.915 560.826 314.875 556.398 320.665 556.727C326.454 557.056 330.881 562.016 330.553 567.805C330.224 573.595 325.264 578.022 319.475 577.693C313.685 577.365 309.258 572.405 309.586 566.615Z" fill="#08FD20"/>
<path d="M263.595 547.483C263.924 541.693 268.884 537.266 274.673 537.595C280.463 537.924 284.89 542.884 284.561 548.673C284.233 554.463 279.273 558.89 273.483 558.561C267.693 558.233 263.266 553.273 263.595 547.483Z" fill="#00760C"/>
<path d="M335.76 585.026C336.089 579.236 341.048 574.809 346.838 575.138C352.628 575.466 357.055 580.426 356.726 586.216C356.398 592.006 351.438 596.433 345.648 596.104C339.858 595.775 335.431 590.815 335.76 585.026Z" fill="#FAFF00"/>
<path d="M323.595 540.483C323.924 534.693 328.884 530.266 334.673 530.595C340.463 530.924 344.89 535.884 344.561 541.673C344.233 547.463 339.273 551.89 333.483 551.561C327.693 551.233 323.266 546.273 323.595 540.483Z" fill="#8D07F6"/>
<path d="M304.458 516.548C304.786 510.759 309.746 506.332 315.536 506.66C321.325 506.989 325.752 511.949 325.424 517.738C325.095 523.528 320.135 527.955 314.346 527.626C308.556 527.298 304.129 522.338 304.458 516.548Z" fill="#F69606"/>
<path d="M445.433 603.357C445.194 597.563 449.697 592.672 455.491 592.433C461.285 592.194 466.176 596.697 466.415 602.491C466.655 608.285 462.152 613.176 456.357 613.415C450.563 613.655 445.672 609.152 445.433 603.357Z" fill="#8F369D"/>
<path d="M459.929 572.965C459.689 567.171 464.193 562.28 469.987 562.041C475.781 561.801 480.672 566.304 480.911 572.098C481.15 577.893 476.647 582.783 470.853 583.023C465.059 583.262 460.168 578.759 459.929 572.965Z" fill="#08FD20"/>
<path d="M413.417 535.455C418.669 537.915 420.931 544.166 418.471 549.417C416.011 554.669 409.76 556.931 404.508 554.471C399.257 552.011 396.994 545.759 399.455 540.508C401.915 535.257 408.166 532.994 413.417 535.455Z" fill="#8F369D"/>
<path d="M449.204 549.754C454.455 552.214 456.718 558.465 454.257 563.717C451.797 568.968 445.546 571.231 440.295 568.77C435.043 566.31 432.781 560.059 435.241 554.808C437.701 549.556 443.952 547.294 449.204 549.754Z" fill="#8D07F6"/>
<path d="M394.152 624.214C393.913 618.42 398.416 613.529 404.21 613.29C410.004 613.05 414.895 617.553 415.134 623.347C415.374 629.141 410.87 634.032 405.076 634.272C399.282 634.511 394.391 630.008 394.152 624.214Z" fill="#8D07F6"/>
<path d="M365.433 607.959C365.194 602.165 369.697 597.274 375.491 597.035C381.285 596.795 386.176 601.299 386.415 607.093C386.655 612.887 382.152 617.778 376.357 618.017C370.563 618.256 365.672 613.753 365.433 607.959Z" fill="#FAFF00"/>
<path d="M410.433 647.357C410.194 641.563 414.697 636.672 420.491 636.433C426.285 636.194 431.176 640.697 431.415 646.491C431.655 652.285 427.152 657.176 421.357 657.415C415.563 657.655 410.672 653.152 410.433 647.357Z" fill="#FAFF00"/>
<path d="M412.87 591.143C412.63 585.349 417.134 580.458 422.928 580.219C428.722 579.98 433.613 584.483 433.852 590.277C434.091 596.071 429.588 600.962 423.794 601.201C418 601.44 413.109 596.937 412.87 591.143Z" fill="#FAFF00"/>
<path d="M384.151 574.889C383.912 569.095 388.415 564.204 394.209 563.964C400.003 563.725 404.894 568.228 405.133 574.022C405.372 579.816 400.869 584.707 395.075 584.946C389.281 585.186 384.39 580.683 384.151 574.889Z" fill="#A62626"/>
</svg>
